<?xml version="1.0" encoding="utf-8"?><svg viewBox="0 0 1095.894 1095.895" xmlns="http://www.w3.org/2000/svg" xmlns:xlink="http://www.w3.org/1999/xlink"><style>:root>svg{display:none}:root>svg:target{display:block}</style><svg viewBox="0 0 75.207 22.414" id="arrow-left" xmlns="http://www.w3.org/2000/svg"><g><path d="M75.207 12.207H.707v-2h74.5z"/><path d="M10.5 22.414L0 11.914V10.5L10.5 0l1.414 1.414-9.793 9.793L11.914 21z"/></g></svg><svg viewBox="0 0 75.207 22.414" id="arrow-right" xmlns="http://www.w3.org/2000/svg"><g><path d="M74.5 12.207H0v-2h74.5z"/><path d="M64.707 22.414L63.293 21l9.793-9.793-9.793-9.793L64.707 0l10.5 10.5v1.414z"/></g></svg><svg viewBox="0 0 75.207 22.414" id="button-arrow" xmlns="http://www.w3.org/2000/svg"><g><path d="M74.5 12.207H0v-2h74.5z"/><path d="M64.707 22.414L63.293 21l9.793-9.793-9.793-9.793L64.707 0l10.5 10.5v1.414z"/></g></svg><svg viewBox="0 0 22.75 22.75" id="checked" xmlns="http://www.w3.org/2000/svg"><g><path d="M19.974 9.184A8.882 8.882 0 1114.89 3.22l1.321-2.123A11.416 11.416 0 1021.64 6.51z"/><path d="M19.213 3.103a1.42 1.42 0 00-1.956.455l-5.646 9.072-1.891-2.7a1.42 1.42 0 10-2.325 1.631l3.124 4.456a1.421 1.421 0 001.163.6h.039a1.42 1.42 0 001.166-.669l6.781-10.9a1.419 1.419 0 00-.455-1.945z"/></g></svg><svg viewBox="0 0 1095.894 1095.895" id="dreams-bg" xmlns="http://www.w3.org/2000/svg"><g opacity=".71"><path d="M315.469 315.474v464.952h464.952V315.474H315.469m-2-2h468.952v468.952H313.469z"/><path d="M3.315 547.947l544.632 411.96 544.632-411.96-544.632-411.96L3.315 547.947m-3.315 0l547.947-414.468 547.947 414.468-547.947 414.468z"/></g></svg><svg viewBox="0 0 12.947 20.345" id="file" xmlns="http://www.w3.org/2000/svg"><path d="M6.473 20.345A6.481 6.481 0 010 13.872v-9.71a4.162 4.162 0 118.323 0v9.248a1.387 1.387 0 11-2.774 0V4.162a1.387 1.387 0 00-2.774 0v9.71a3.7 3.7 0 107.4 0V1.387a1.387 1.387 0 012.774 0v12.485a6.481 6.481 0 01-6.476 6.473z"/></svg><svg viewBox="0 0 21.127 17.642" id="icon-arrow2" xmlns="http://www.w3.org/2000/svg"><g><path d="M20.42 9.82H0v-2h20.42z"/><path d="M13.013 17.642l-1.414-1.414 7.407-7.407-7.407-7.407L13.013 0l8.114 8.114v1.414z"/></g></svg><svg viewBox="0 0 16 16.003" id="inst" xmlns="http://www.w3.org/2000/svg"><g><path d="M15.96 4.7a5.848 5.848 0 00-.372-1.941A4.1 4.1 0 0013.246.422 5.863 5.863 0 0011.305.05C10.451.009 10.176 0 8.003 0s-2.445.009-3.3.047a5.849 5.849 0 00-1.939.372 3.9 3.9 0 00-1.419.925A3.94 3.94 0 00.422 2.76 5.863 5.863 0 00.051 4.7C.01 5.558 0 5.83 0 8s.01 2.448.051 3.3a5.847 5.847 0 00.372 1.941 4.1 4.1 0 002.338 2.343 5.863 5.863 0 001.941.372C5.551 15.994 5.828 16 8 16s2.445-.009 3.3-.047a5.846 5.846 0 001.941-.372 4.093 4.093 0 002.342-2.341 5.867 5.867 0 00.368-1.94c.037-.853.047-1.125.047-3.3s-.001-2.442-.038-3.3zm-1.441 6.534a4.386 4.386 0 01-.275 1.485 2.655 2.655 0 01-1.519 1.519 4.4 4.4 0 01-1.485.275c-.844.038-1.1.047-3.232.047s-2.392-.009-3.233-.047a4.384 4.384 0 01-1.485-.275 2.463 2.463 0 01-.919-.6 2.488 2.488 0 01-.6-.919 4.4 4.4 0 01-.275-1.485c-.038-.844-.047-1.1-.047-3.233s.009-2.392.047-3.232a4.384 4.384 0 01.275-1.485 2.432 2.432 0 01.6-.919 2.484 2.484 0 01.919-.6A4.4 4.4 0 014.777 1.5c.844-.037 1.1-.047 3.232-.047s2.392.009 3.233.047a4.386 4.386 0 011.485.275 2.461 2.461 0 01.919.6 2.487 2.487 0 01.6.919 4.4 4.4 0 01.275 1.485c.037.844.047 1.1.047 3.232s-.017 2.384-.05 3.228zm0 0"/><path d="M8.003 3.892a4.111 4.111 0 104.111 4.111 4.112 4.112 0 00-4.111-4.111zm0 6.778a2.667 2.667 0 112.667-2.667 2.667 2.667 0 01-2.667 2.667zm0 0"/><path d="M13.237 3.729a.96.96 0 11-.96-.96.96.96 0 01.96.96zm0 0"/></g></svg><svg viewBox="0 0 63.772 44.433" id="like" xmlns="http://www.w3.org/2000/svg"><path d="M55.679 0H8.091A8.091 8.091 0 000 8.092v20.23c0 4.469 3.622 8.091 7.585 8.091H20.23c5.086 0 8.442 8.02 11.4 8.02 3.013 0 6.874-8.02 11.428-8.02h12.621a8.091 8.091 0 008.093-8.091V8.092A8.092 8.092 0 0055.679 0z"/><g><path d="M37.468 8.188a5.522 5.522 0 012.952.873 7.081 7.081 0 012.212 9.171c-1.208 2.3-6.24 6.592-10.547 9.848a.327.327 0 01-.4 0c-4.306-3.256-9.338-7.553-10.546-9.848a7.082 7.082 0 012.211-9.171 5.522 5.522 0 012.952-.873 5.85 5.85 0 014.654 1.67l.928 1.265.929-1.265a5.649 5.649 0 014.654-1.67"/></g></svg><svg viewBox="0 0 15.891 21.582" id="marker" xmlns="http://www.w3.org/2000/svg"><path d="M7.945 0A7.955 7.955 0 000 7.946a7.75 7.75 0 00.695 3.243A50.1 50.1 0 007.61 21.428a.442.442 0 00.67 0 50.122 50.122 0 006.916-10.239 7.747 7.747 0 00.695-3.243A7.955 7.955 0 007.945 0zm0 12.073a4.127 4.127 0 114.127-4.127 4.132 4.132 0 01-4.127 4.127z"/></svg><svg viewBox="0 0 18.657 18.657" id="phone" xmlns="http://www.w3.org/2000/svg"><path d="M.678.901l3.79-.879a.88.88 0 011 .507L7.219 4.61a.872.872 0 01-.251 1.02L4.759 7.438a13.5 13.5 0 006.457 6.457l1.807-2.208a.874.874 0 011.02-.251l4.081 1.749a.885.885 0 01.51 1.006l-.875 3.79a.874.874 0 01-.853.678A16.906 16.906 0 01.001 1.75.873.873 0 01.678.901z"/></svg><svg viewBox="0 0 19.048 19.048" id="tel" xmlns="http://www.w3.org/2000/svg"><path d="M15.757 12.032a1.452 1.452 0 00-2.2 0c-.513.509-1.027 1.018-1.531 1.536a.3.3 0 01-.422.077c-.332-.181-.686-.328-1.005-.526a15.939 15.939 0 01-3.838-3.494 9.1 9.1 0 01-1.376-2.2.316.316 0 01.077-.405c.513-.5 1.014-1 1.518-1.514a1.458 1.458 0 000-2.247c-.4-.405-.8-.8-1.2-1.207S4.956 1.22 4.538.81a1.461 1.461 0 00-2.2 0c-.518.509-1.014 1.03-1.54 1.531a2.5 2.5 0 00-.785 1.686 7.135 7.135 0 00.553 3.075 18.681 18.681 0 003.316 5.525 20.522 20.522 0 006.8 5.318 9.829 9.829 0 003.765 1.1 2.76 2.76 0 002.368-.9c.44-.491.936-.94 1.4-1.41a1.468 1.468 0 00.009-2.235q-1.229-1.241-2.467-2.468z"/><path d="M18.997 8.47A15.955 15.955 0 0010.532.045a.61.61 0 00-.8.35.643.643 0 00.339.828 14.711 14.711 0 017.805 7.767.616.616 0 00.562.375.6.6 0 00.252-.056.643.643 0 00.307-.839z"/><path d="M9.74 4.617a8.912 8.912 0 014.734 4.7.6.6 0 00.544.362.576.576 0 00.244-.054.62.62 0 00.3-.811 10.117 10.117 0 00-5.373-5.335.59.59 0 00-.776.338.621.621 0 00.327.8z"/></svg><svg viewBox="0 0 19.985 18.735" id="text" xmlns="http://www.w3.org/2000/svg"><path d="M17.487 0H2.498a2.5 2.5 0 00-2.5 2.5v9.368a2.5 2.5 0 002.5 2.5h1.874v3.747a.624.624 0 001.035.47l4.82-4.217h7.259a2.5 2.5 0 002.5-2.5V2.5A2.5 2.5 0 0017.487 0zm-4.372 9.368H7.494a.625.625 0 110-1.249h5.621a.625.625 0 110 1.249zm0-3.123H7.494a.625.625 0 110-1.249h5.621a.625.625 0 110 1.249z"/></svg><svg viewBox="0 0 16.237 20.041" id="user" xmlns="http://www.w3.org/2000/svg"><circle cx="4.684" cy="4.684" r="4.684" transform="translate(3.435)"/><path d="M8.119 9.935A8.128 8.128 0 000 18.054v1.362a.625.625 0 00.625.625h14.988a.624.624 0 00.625-.625v-1.363a8.128 8.128 0 00-8.119-8.118z"/></svg></svg>