<?xml version="1.0" encoding="utf-8"?><svg viewBox="0 0 1095.894 1095.895" xmlns="http://www.w3.org/2000/svg" xmlns:xlink="http://www.w3.org/1999/xlink"><style>:root>svg{display:none}:root>svg:target{display:block}</style><svg viewBox="0 0 75.207 22.414" id="arrow-left" xmlns="http://www.w3.org/2000/svg"><g><path d="M75.207 12.207H.707v-2h74.5z"/><path d="M10.5 22.414L0 11.914V10.5L10.5 0l1.414 1.414-9.793 9.793L11.914 21z"/></g></svg><svg viewBox="0 0 75.207 22.414" id="arrow-right" xmlns="http://www.w3.org/2000/svg"><g><path d="M74.5 12.207H0v-2h74.5z"/><path d="M64.707 22.414L63.293 21l9.793-9.793-9.793-9.793L64.707 0l10.5 10.5v1.414z"/></g></svg><svg viewBox="0 0 75.207 22.414" id="button-arrow" xmlns="http://www.w3.org/2000/svg"><g><path d="M74.5 12.207H0v-2h74.5z"/><path d="M64.707 22.414L63.293 21l9.793-9.793-9.793-9.793L64.707 0l10.5 10.5v1.414z"/></g></svg><svg viewBox="0 0 1095.894 1095.895" id="dreams-bg" xmlns="http://www.w3.org/2000/svg"><g opacity=".71"><path d="M315.469 315.474v464.952h464.952V315.474H315.469m-2-2h468.952v468.952H313.469z"/><path d="M3.315 547.947l544.632 411.96 544.632-411.96-544.632-411.96L3.315 547.947m-3.315 0l547.947-414.468 547.947 414.468-547.947 414.468z"/></g></svg><svg viewBox="0 0 16 16.003" id="inst" xmlns="http://www.w3.org/2000/svg"><g><path d="M15.96 4.7a5.848 5.848 0 00-.372-1.941A4.1 4.1 0 0013.246.422 5.863 5.863 0 0011.305.05C10.451.009 10.176 0 8.003 0s-2.445.009-3.3.047a5.849 5.849 0 00-1.939.372 3.9 3.9 0 00-1.419.925A3.94 3.94 0 00.422 2.76 5.863 5.863 0 00.051 4.7C.01 5.558 0 5.83 0 8s.01 2.448.051 3.3a5.847 5.847 0 00.372 1.941 4.1 4.1 0 002.338 2.343 5.863 5.863 0 001.941.372C5.551 15.994 5.828 16 8 16s2.445-.009 3.3-.047a5.846 5.846 0 001.941-.372 4.093 4.093 0 002.342-2.341 5.867 5.867 0 00.368-1.94c.037-.853.047-1.125.047-3.3s-.001-2.442-.038-3.3zm-1.441 6.534a4.386 4.386 0 01-.275 1.485 2.655 2.655 0 01-1.519 1.519 4.4 4.4 0 01-1.485.275c-.844.038-1.1.047-3.232.047s-2.392-.009-3.233-.047a4.384 4.384 0 01-1.485-.275 2.463 2.463 0 01-.919-.6 2.488 2.488 0 01-.6-.919 4.4 4.4 0 01-.275-1.485c-.038-.844-.047-1.1-.047-3.233s.009-2.392.047-3.232a4.384 4.384 0 01.275-1.485 2.432 2.432 0 01.6-.919 2.484 2.484 0 01.919-.6A4.4 4.4 0 014.777 1.5c.844-.037 1.1-.047 3.232-.047s2.392.009 3.233.047a4.386 4.386 0 011.485.275 2.461 2.461 0 01.919.6 2.487 2.487 0 01.6.919 4.4 4.4 0 01.275 1.485c.037.844.047 1.1.047 3.232s-.017 2.384-.05 3.228zm0 0"/><path d="M8.003 3.892a4.111 4.111 0 104.111 4.111 4.112 4.112 0 00-4.111-4.111zm0 6.778a2.667 2.667 0 112.667-2.667 2.667 2.667 0 01-2.667 2.667zm0 0"/><path d="M13.237 3.729a.96.96 0 11-.96-.96.96.96 0 01.96.96zm0 0"/></g></svg><svg viewBox="0 0 15.891 21.582" id="marker" xmlns="http://www.w3.org/2000/svg"><path d="M7.945 0A7.955 7.955 0 000 7.946a7.75 7.75 0 00.695 3.243A50.1 50.1 0 007.61 21.428a.442.442 0 00.67 0 50.122 50.122 0 006.916-10.239 7.747 7.747 0 00.695-3.243A7.955 7.955 0 007.945 0zm0 12.073a4.127 4.127 0 114.127-4.127 4.132 4.132 0 01-4.127 4.127z"/></svg><svg viewBox="0 0 18.657 18.657" id="phone" xmlns="http://www.w3.org/2000/svg"><path d="M.678.901l3.79-.879a.88.88 0 011 .507L7.219 4.61a.872.872 0 01-.251 1.02L4.759 7.438a13.5 13.5 0 006.457 6.457l1.807-2.208a.874.874 0 011.02-.251l4.081 1.749a.885.885 0 01.51 1.006l-.875 3.79a.874.874 0 01-.853.678A16.906 16.906 0 01.001 1.75.873.873 0 01.678.901z"/></svg></svg>