<svg xmlns="http://www.w3.org/2000/svg" width="22.75" height="22.75" viewBox="0 0 22.75 22.75">
  <g id="checked" transform="translate(-13.026 -1.898)">
    <path id="circle" d="M33,41.8a8.882,8.882,0,1,1-5.084-5.964l1.321-2.123a11.416,11.416,0,1,0,5.429,5.413Z" transform="translate(0 -30.718)" fill="#ded0b1"/>
    <path id="check" d="M115.778.214a1.42,1.42,0,0,0-1.956.455l-5.646,9.072-1.891-2.7a1.42,1.42,0,1,0-2.325,1.631l3.124,4.456a1.421,1.421,0,0,0,1.163.6h.039a1.42,1.42,0,0,0,1.166-.669l6.781-10.9A1.419,1.419,0,0,0,115.778.214Z" transform="translate(-83.539 4.787)" fill="#ded0b1"/>
  </g>
</svg>
