<svg xmlns="http://www.w3.org/2000/svg" width="63.772" height="44.433" viewBox="0 0 63.772 44.433">
  <g id="like" transform="translate(-38.176 -321.052)">
    <path id="like-2" data-name="like" d="M93.855,321.052H46.267a8.091,8.091,0,0,0-8.091,8.092v20.23c0,4.469,3.622,8.091,7.585,8.091H58.406c5.086,0,8.442,8.02,11.4,8.02,3.013,0,6.874-8.02,11.428-8.02H93.855a8.091,8.091,0,0,0,8.093-8.091v-20.23A8.092,8.092,0,0,0,93.855,321.052Z" fill="#f05161" fill-rule="evenodd"/>
    <g id="Сгруппировать_569" data-name="Сгруппировать 569">
      <path id="Контур_3076" data-name="Контур 3076" d="M75.644,329.24a5.522,5.522,0,0,1,2.952.873,7.081,7.081,0,0,1,2.212,9.171c-1.208,2.3-6.24,6.592-10.547,9.848a.327.327,0,0,1-.4,0c-4.306-3.256-9.338-7.553-10.546-9.848a7.082,7.082,0,0,1,2.211-9.171,5.522,5.522,0,0,1,2.952-.873,5.85,5.85,0,0,1,4.654,1.67l.928,1.265.929-1.265a5.649,5.649,0,0,1,4.654-1.67" fill="#fff"/>
    </g>
  </g>
</svg>
