<svg id="tel" xmlns="http://www.w3.org/2000/svg" width="19.048" height="19.048" viewBox="0 0 19.048 19.048">
  <path id="Контур_3069" data-name="Контур 3069" d="M270.84,310.35a1.452,1.452,0,0,0-2.2,0c-.513.509-1.027,1.018-1.531,1.536a.3.3,0,0,1-.422.077c-.332-.181-.686-.328-1.005-.526a15.939,15.939,0,0,1-3.838-3.494,9.1,9.1,0,0,1-1.376-2.2.316.316,0,0,1,.077-.405c.513-.5,1.014-1,1.518-1.514a1.458,1.458,0,0,0,0-2.247c-.4-.405-.8-.8-1.2-1.207s-.824-.832-1.242-1.242a1.461,1.461,0,0,0-2.2,0c-.518.509-1.014,1.03-1.54,1.531a2.5,2.5,0,0,0-.785,1.686,7.135,7.135,0,0,0,.553,3.075,18.681,18.681,0,0,0,3.316,5.525,20.522,20.522,0,0,0,6.8,5.318,9.829,9.829,0,0,0,3.765,1.1,2.76,2.76,0,0,0,2.368-.9c.44-.491.936-.94,1.4-1.41a1.468,1.468,0,0,0,.009-2.235Q272.078,311.577,270.84,310.35Z" transform="translate(-255.083 -298.318)" fill="#858586"/>
  <path id="Контур_3070" data-name="Контур 3070" d="M279.9,306.6a15.955,15.955,0,0,0-8.465-8.425.61.61,0,0,0-.8.35.643.643,0,0,0,.339.828,14.711,14.711,0,0,1,7.805,7.767.616.616,0,0,0,.562.375.6.6,0,0,0,.252-.056A.643.643,0,0,0,279.9,306.6Z" transform="translate(-260.903 -298.13)" fill="#858586"/>
  <path id="Контур_3071" data-name="Контур 3071" d="M270.455,304.812a8.912,8.912,0,0,1,4.734,4.7.6.6,0,0,0,.544.362.576.576,0,0,0,.244-.054.62.62,0,0,0,.3-.811,10.117,10.117,0,0,0-5.373-5.335.59.59,0,0,0-.776.338A.621.621,0,0,0,270.455,304.812Z" transform="translate(-260.715 -300.195)" fill="#858586"/>
</svg>
