<svg xmlns="http://www.w3.org/2000/svg" width="19.985" height="18.735" viewBox="0 0 19.985 18.735">
  <path id="text" d="M181.154,371.91H166.165a2.5,2.5,0,0,0-2.5,2.5v9.368a2.5,2.5,0,0,0,2.5,2.5h1.874v3.747a.624.624,0,0,0,1.035.47l4.82-4.217h7.259a2.5,2.5,0,0,0,2.5-2.5v-9.368A2.5,2.5,0,0,0,181.154,371.91Zm-4.372,9.368h-5.621a.625.625,0,1,1,0-1.249h5.621a.625.625,0,1,1,0,1.249Zm0-3.123h-5.621a.625.625,0,1,1,0-1.249h5.621a.625.625,0,1,1,0,1.249Z" transform="translate(-163.667 -371.91)" fill="#858586"/>
</svg>
